<svg width="392" height="392" viewBox="0 0 392 392" fill="none" xmlns="http://www.w3.org/2000/svg">
<g clip-path="url(#clip0)">
<path d="M334.576 340.333C337.747 340.333 340.318 337.762 340.318 334.591C340.318 331.419 337.747 328.848 334.576 328.848C331.405 328.848 328.834 331.419 328.834 334.591C328.834 337.762 331.405 340.333 334.576 340.333Z" fill="#FDFDFD" fill-opacity="0.2"/>
<path d="M357.546 363.302C360.717 363.302 363.288 360.731 363.288 357.56C363.288 354.389 360.717 351.818 357.546 351.818C354.374 351.818 351.803 354.389 351.803 357.56C351.803 360.731 354.374 363.302 357.546 363.302Z" fill="#FDFDFD" fill-opacity="0.2"/>
<path d="M57.4106 340.333C60.5819 340.333 63.1528 337.762 63.1528 334.591C63.1528 331.419 60.5819 328.848 57.4106 328.848C54.2393 328.848 51.6684 331.419 51.6684 334.591C51.6684 337.762 54.2393 340.333 57.4106 340.333Z" fill="#FDFDFD" fill-opacity="0.2"/>
<path d="M34.441 363.302C37.6124 363.302 40.1832 360.731 40.1832 357.56C40.1832 354.389 37.6124 351.818 34.441 351.818C31.2697 351.818 28.6989 354.389 28.6989 357.56C28.6989 360.731 31.2697 363.302 34.441 363.302Z" fill="#FDFDFD" fill-opacity="0.2"/>
<path d="M32.7591 73.3784C30.5165 71.1358 26.8805 71.1358 24.6379 73.3784C22.3953 75.6209 22.3953 79.257 24.6379 81.4996L73.3639 130.226C75.6065 132.468 79.2425 132.468 81.4851 130.226C83.7277 127.983 83.7277 124.347 81.4851 122.104L32.7591 73.3784Z" fill="#FDFDFD" fill-opacity="0.2"/>
<path d="M49.0009 57.1367C46.7583 54.8941 43.1222 54.8941 40.8796 57.1367C38.637 59.3792 38.637 63.0153 40.8796 65.2579L89.6056 113.984C91.8482 116.226 95.4843 116.226 97.7269 113.984C99.9695 111.741 99.9695 108.105 97.7269 105.863L49.0009 57.1367Z" fill="#FDFDFD" fill-opacity="0.2"/>
<path d="M65.2426 40.895C63 38.6524 59.3639 38.6524 57.1213 40.895C54.8787 43.1375 54.8787 46.7736 57.1213 49.0162L105.847 97.7422C108.09 99.9848 111.726 99.9848 113.969 97.7422C116.211 95.4996 116.211 91.8635 113.969 89.6209L65.2426 40.895Z" fill="#FDFDFD" fill-opacity="0.2"/>
<path d="M81.4844 24.6533C79.2418 22.4107 75.6057 22.4107 73.3631 24.6533C71.1205 26.8958 71.1205 30.5319 73.3631 32.7745L122.089 81.5005C124.332 83.7431 127.968 83.7431 130.21 81.5005C132.453 79.2579 132.453 75.6218 130.21 73.3793L81.4844 24.6533Z" fill="#FDFDFD" fill-opacity="0.2"/>
<path d="M277.202 228.491C276.323 227.613 275.183 227.043 273.953 226.866L247.425 223.076L232.536 208.188C230.293 205.945 226.657 205.946 224.415 208.188C222.173 210.431 222.173 214.067 224.415 216.309L236.597 228.49L228.476 236.612L204.113 212.249L266.521 149.84C286.119 159.229 309.736 155.351 325.349 139.738L390.316 74.77C392.559 72.5274 392.559 68.8913 390.316 66.6487C379.122 55.4541 360.906 55.4541 349.712 66.6487L305.047 111.314L280.684 86.9507L325.349 42.2857C336.543 31.0911 336.543 12.8755 325.349 1.68097C323.106 -0.561624 319.47 -0.561624 317.227 1.68097L252.26 66.6487C236.647 82.2618 232.769 105.878 242.157 125.477L195.991 171.642L156.948 132.599C170.578 108.21 166.484 77.1672 146.45 57.134L97.7239 8.40797C86.5293 -2.7866 68.3138 -2.7866 57.1192 8.40797L8.39318 57.134C-2.80139 68.3285 -2.80139 86.5441 8.39318 97.7387L57.1192 146.465C77.1532 166.499 108.195 170.593 132.584 156.963L171.628 196.006L144.558 223.076L118.03 226.866C116.799 227.042 115.66 227.611 114.781 228.49L10.0769 333.197C-3.35649 346.63 -3.35649 368.489 10.0769 381.923C23.5102 395.356 45.3687 395.356 58.8028 381.923L163.509 277.217C164.387 276.339 164.957 275.199 165.133 273.968L168.923 247.44L195.992 220.371L223.062 247.44L226.852 273.968C227.027 275.198 227.597 276.338 228.476 277.217L333.182 381.923C339.898 388.639 348.722 391.998 357.544 391.998C366.368 391.998 375.19 388.639 381.907 381.923C395.341 368.489 395.341 346.631 381.907 333.197L277.202 228.491ZM137.516 145.653C135.585 143.722 132.561 143.418 130.285 144.926C109.908 158.426 82.5541 155.658 65.242 138.346L16.516 89.6197C9.79892 82.9027 9.79892 71.9738 16.516 65.2567L65.242 16.5308C71.959 9.8137 82.8879 9.8137 89.605 16.5308L138.331 65.2567C155.643 82.5689 158.411 109.923 144.912 130.3C143.403 132.576 143.707 135.6 145.638 137.531L187.872 179.765L179.751 187.886L137.516 145.653ZM50.6816 373.802C41.7258 382.757 27.1539 382.757 18.1981 373.802C9.24229 364.846 9.24229 350.274 18.1981 341.318L118.843 240.673L151.326 273.157L50.6816 373.802ZM155.387 260.975L131.024 236.612L145.236 234.582L157.418 246.763L155.387 260.975ZM163.508 236.612L155.387 228.491L253.283 130.594C255.136 128.741 255.5 125.869 254.168 123.614C244.848 107.834 247.403 87.7493 260.381 74.7715L320.593 14.56C323.644 20.9623 322.522 28.8723 317.227 34.1667L268.501 82.8927C266.259 85.1353 266.259 88.7714 268.501 91.014L300.985 123.497C303.228 125.74 306.864 125.74 309.106 123.497L357.832 74.7715C363.126 69.4778 371.037 68.3561 377.439 71.4064L317.227 131.618C304.25 144.596 284.164 147.151 268.385 137.831C266.129 136.499 263.258 136.863 261.405 138.716L163.508 236.612ZM234.566 246.763L246.748 234.582L260.959 236.612L236.596 260.975L234.566 246.763ZM373.786 373.802C364.83 382.757 350.258 382.757 341.302 373.802L240.657 273.156L273.141 240.673L373.786 341.317C382.742 350.273 382.742 364.846 373.786 373.802Z" fill="#FDFDFD" fill-opacity="0.2"/>
</g>
<defs>
<clipPath id="clip0">
<rect width="392" height="392" fill="white"/>
</clipPath>
</defs>
</svg>
